<?xml version="1.0"?><svg version="1.1" id="圖層_1" xmlns="http://www.w3.org/2000/svg" x="0" y="0" viewBox="0 0 100 100" xml:space="preserve"><path d="M80.7 41.7c0-17.7-14.9-31.9-32.9-30.6-15.1 1-27.4 13.3-28.4 28.4C18.3 54.2 27.8 67 41 71c2 .6 3.5 2.1 4.2 4.1l4.4 13.6c.1.4.7.4.8 0l4.4-13.6c.6-2 2.2-3.5 4.2-4.1 12.5-3.8 21.7-15.5 21.7-29.3zM50 54.8c-7.3 0-13.2-5.9-13.2-13.2 0-7.3 5.9-13.2 13.2-13.2s13.2 5.9 13.2 13.2c0 7.4-5.9 13.2-13.2 13.2z" stroke-width="3.5" stroke-miterlimit="10" fill="#abbd81" stroke="#333"/><path d="M47.8 11.1c-1.4.1-2.8.3-4.2.6C57.5 14.6 68 26.9 68 41.7c0 13.8-9.1 25.5-21.7 29.4-1 .3-1.9.9-2.6 1.6.7.7 1.2 1.5 1.5 2.5l4.4 13.6c.1.4.7.4.8 0l4.4-13.6c.6-2 2.2-3.5 4.2-4.1 12.6-3.8 21.7-15.5 21.7-29.4 0-17.7-14.9-31.9-32.9-30.6z" opacity=".2" stroke-linejoin="round" stroke="#000" stroke-width="3.5" stroke-miterlimit="10"/><path d="M32.4 24.4c2.4-2.5 5.4-4.5 8.8-5.7" fill="none" stroke-linecap="round" stroke="#fff" stroke-width="3.5" stroke-miterlimit="10"/><path d="M27.7 32.2c.2-.6.4-1.2.7-1.7" fill="none" stroke-linecap="round" stroke="#fff" stroke-width="3.5" stroke-miterlimit="10"/><metadata xmlns:d="https://loading.io/stock/">
<d:name>location</d:name>
<d:tags>location,place,locality,marker,landmark,waypoint,gps</d:tags>
<d:license>by</d:license>
<d:slug>ghoadw</d:slug>
</metadata></svg>